# xmcd
#
# Track frame offsets: 
#        150
#        15198
#        27169
#        39809
#        57835
#        72885
#        85711
#        98632
#        111488
#        123615
#        137305
#        151550
#
# Disc length: 2282 seconds
#
# Revision: 0
# Processed by: cddbd v1.4PL0 Copyright (c) Steve Scherf et al.
# Submitted via: ExactAudioCopy v0.90b3
#
DISCID=8108e80c
DTITLE=Ramón Ayala - Quémame los Ojos
DYEAR=2000
DGENRE=Latin
TTITLE0=Quemame Los Ojos
TTITLE1=El Tonto Que Te Amo
TTITLE2=Paloma de Felicidad
TTITLE3=Silvestre Rodriguez
TTITLE4=Mi Muchachita
TTITLE5=Lamento Vallenato
TTITLE6=Como Una Flecha
TTITLE7=¡Oh No!
TTITLE8=Triunfo El Amor
TTITLE9=Si Me Hubieras Querido
TTITLE10=Loco, Loco
TTITLE11=Amigos del Alma
EXTD=Corrida
EXTT0=
EXTT1=
EXTT2=
EXTT3=
EXTT4=
EXTT5=
EXTT6=
EXTT7=
EXTT8=
EXTT9=
EXTT10=
EXTT11=
PLAYORDER=
